<?xml version="1.0" encoding="UTF-8"?>
<!DOCTYPE svg PUBLIC "-//W3C//DTD SVG 1.1//EN" "http://www.w3.org/Graphics/SVG/1.1/DTD/svg11.dtd">
<svg xmlns="http://www.w3.org/2000/svg" version="1.1" width="2000px" height="2000px" style="shape-rendering:geometricPrecision; text-rendering:geometricPrecision; image-rendering:optimizeQuality; fill-rule:evenodd; clip-rule:evenodd" xmlns:xlink="http://www.w3.org/1999/xlink">
<g><path style="opacity:0.997" fill="#fefffe" d="M 1050.5,216.5 C 1085.29,215.854 1118.96,221.687 1151.5,234C 1240.77,271.279 1324.1,318.279 1401.5,375C 1544.85,479.338 1664.35,605.838 1760,754.5C 1812.26,836.366 1853.26,923.7 1883,1016.5C 1913.79,1113.5 1923.12,1212.5 1911,1313.5C 1894.46,1434.17 1836.63,1529 1737.5,1598C 1686.04,1630.27 1630.04,1650.27 1569.5,1658C 1485.26,1670.28 1401.93,1665.95 1319.5,1645C 1282.31,1634.5 1246.81,1620.34 1213,1602.5C 1212.33,1600.5 1212.33,1598.5 1213,1596.5C 1248.42,1507.96 1265.09,1415.96 1263,1320.5C 1184.72,1431.45 1091.89,1528.95 984.5,1613C 894.879,1681.47 794.879,1729.14 684.5,1756C 608.949,1773.72 532.949,1776.05 456.5,1763C 387.541,1750.7 325.208,1723.7 269.5,1682C 221.168,1642.89 187.001,1593.72 167,1534.5C 141.106,1455.91 129.773,1375.24 133,1292.5C 137.008,1185.12 158.675,1081.46 198,981.5C 279.897,782.141 399.064,608.641 555.5,461C 638.173,383.964 730.84,321.297 833.5,273C 902.472,240.722 974.806,221.889 1050.5,216.5 Z"/></g>
</svg>
