<?xml version="1.0" standalone="no"?>
<!DOCTYPE svg PUBLIC "-//W3C//DTD SVG 20010904//EN"
 "http://www.w3.org/TR/2001/REC-SVG-20010904/DTD/svg10.dtd">
<svg version="1.0" xmlns="http://www.w3.org/2000/svg"
 width="2000.000000pt" height="2000.000000pt" viewBox="0 0 2000.000000 2000.000000"
 preserveAspectRatio="xMidYMid meet">

<g transform="translate(0.000000,2000.000000) scale(0.100000,-0.100000)"
fill="#000000" stroke="none">
<path d="M10465 17814 c-994 -51 -2146 -469 -3290 -1194 -1452 -920 -2829
-2335 -3927 -4033 -789 -1219 -1336 -2425 -1628 -3589 -406 -1612 -363 -3246
117 -4478 299 -768 802 -1318 1568 -1716 954 -495 2139 -636 3345 -399 897
177 1787 540 2607 1062 960 612 1987 1570 2888 2693 154 192 390 502 470 617
17 24 33 43 37 43 16 0 -12 -592 -43 -890 -67 -665 -196 -1218 -415 -1774 -54
-138 -57 -150 -43 -174 17 -30 213 -123 499 -237 434 -173 826 -275 1282 -335
241 -31 373 -40 668 -47 886 -19 1673 118 2300 402 745 337 1401 975 1790
1741 406 798 552 1816 424 2954 -196 1757 -1180 3799 -2664 5530 -447 521
-1018 1089 -1570 1560 -898 767 -1897 1421 -2880 1885 -463 220 -794 328
-1105 364 -107 12 -332 20 -430 15z"/>
</g>
</svg>
