<svg width="50" height="50" viewBox="0 0 50 50" fill="none" xmlns="http://www.w3.org/2000/svg">
<path d="M50 25C50 38.8102 38.8061 50 25 50C11.1939 50 0 38.8102 0 25C0 11.1979 11.1939 0 25 0C38.8061 0 50 11.1979 50 25ZM25.6709 8.26613C20.1772 8.26613 16.6734 10.5803 13.922 14.6933C13.5655 15.2262 13.6848 15.9449 14.1957 16.3323L17.6935 18.9845C18.2182 19.3824 18.9658 19.2877 19.3735 18.7706C21.1743 16.4865 22.4091 15.162 25.15 15.162C27.2094 15.162 29.7567 16.4874 29.7567 18.4844C29.7567 19.9941 28.5104 20.7694 26.477 21.9094C24.1056 23.2387 20.9677 24.8932 20.9677 29.0323V29.4355C20.9677 30.1035 21.5094 30.6452 22.1774 30.6452H27.8226C28.4906 30.6452 29.0323 30.1035 29.0323 29.4355V29.3011C29.0323 26.432 37.4179 26.3125 37.4179 18.5484C37.4179 12.7014 31.3529 8.26613 25.6709 8.26613ZM25 33.2661C22.443 33.2661 20.3629 35.3463 20.3629 37.9032C20.3629 40.4601 22.443 42.5403 25 42.5403C27.557 42.5403 29.6371 40.4601 29.6371 37.9032C29.6371 35.3463 27.557 33.2661 25 33.2661Z" fill="black"/>
</svg>
